<svg width="24" height="24" viewBox="0 0 24 24" fill="none" xmlns="http://www.w3.org/2000/svg">
<path d="M10.6639 3.61804C11.2206 2.52716 12.7794 2.52716 13.3361 3.61804L15.2504 7.36913C15.4683 7.79621 15.8773 8.09336 16.3509 8.16867L20.5099 8.83013C21.7194 9.0225 22.2011 10.5049 21.3356 11.3715L18.3597 14.3513C18.0209 14.6905 17.8647 15.1713 17.9394 15.6449L18.5955 19.8048C18.7863 21.0146 17.5253 21.9308 16.4337 21.3755L12.6801 19.466C12.2528 19.2486 11.7472 19.2486 11.3199 19.466L7.56633 21.3755C6.47474 21.9308 5.21371 21.0146 5.40452 19.8048L6.06065 15.6449C6.13535 15.1713 5.97913 14.6905 5.64031 14.3513L2.66436 11.3715C1.79891 10.5049 2.28058 9.0225 3.4901 8.83013L7.64915 8.16867C8.12268 8.09336 8.53167 7.79621 8.74962 7.36913L10.6639 3.61804Z" stroke="currentColor" stroke-linecap="round" stroke-linejoin="round"/>
</svg>
